<mxfile host="app.diagrams.net" modified="2024-07-04T14:51:20.884Z" agent="Mozilla/5.0 (Windows NT 10.0; Win64; x64) AppleWebKit/537.36 (KHTML, like Gecko) Chrome/126.0.0.0 Safari/537.36" etag="Pc6Ywz42IdZglZQJmldk" version="24.6.4" type="device">
  <diagram name="Page-1" id="RMBeRoWUjYHigYJ5mgv3">
    <mxGraphModel dx="1644" dy="853" grid="1" gridSize="10" guides="1" tooltips="1" connect="1" arrows="1" fold="1" page="1" pageScale="1" pageWidth="850" pageHeight="1100" math="0" shadow="0">
      <root>
        <mxCell id="0" />
        <mxCell id="1" parent="0" />
        <mxCell id="lGFfOPP8RoqFbHj-49rB-1" value="&lt;b&gt;MEMBER&lt;/b&gt;" style="text;html=1;align=left;verticalAlign=middle;resizable=0;points=[];autosize=1;strokeColor=none;fillColor=none;" parent="1" vertex="1">
          <mxGeometry x="40" y="160" width="80" height="30" as="geometry" />
        </mxCell>
        <mxCell id="lGFfOPP8RoqFbHj-49rB-2" value="StdNo" style="whiteSpace=wrap;html=1;" parent="1" vertex="1">
          <mxGeometry x="40" y="190" width="80" height="20" as="geometry" />
        </mxCell>
        <mxCell id="lGFfOPP8RoqFbHj-49rB-3" value="&lt;b&gt;TERM&lt;/b&gt;" style="text;html=1;align=left;verticalAlign=middle;resizable=0;points=[];autosize=1;strokeColor=none;fillColor=none;" parent="1" vertex="1">
          <mxGeometry x="40" y="280" width="60" height="30" as="geometry" />
        </mxCell>
        <mxCell id="lGFfOPP8RoqFbHj-49rB-4" value="TCode" style="whiteSpace=wrap;html=1;fontStyle=4" parent="1" vertex="1">
          <mxGeometry x="40" y="310" width="80" height="20" as="geometry" />
        </mxCell>
        <mxCell id="lGFfOPP8RoqFbHj-49rB-5" value="&lt;b&gt;SESSION&lt;/b&gt;" style="text;html=1;align=left;verticalAlign=middle;resizable=0;points=[];autosize=1;strokeColor=none;fillColor=none;" parent="1" vertex="1">
          <mxGeometry x="40" y="400" width="80" height="30" as="geometry" />
        </mxCell>
        <mxCell id="lGFfOPP8RoqFbHj-49rB-6" value="EventId" style="whiteSpace=wrap;html=1;fontStyle=4" parent="1" vertex="1">
          <mxGeometry x="40" y="430" width="80" height="20" as="geometry" />
        </mxCell>
        <mxCell id="lGFfOPP8RoqFbHj-49rB-7" value="&lt;b&gt;TEAM&lt;/b&gt;" style="text;html=1;align=left;verticalAlign=middle;resizable=0;points=[];autosize=1;strokeColor=none;fillColor=none;" parent="1" vertex="1">
          <mxGeometry x="40" y="640" width="60" height="30" as="geometry" />
        </mxCell>
        <mxCell id="lGFfOPP8RoqFbHj-49rB-8" value="TeamId" style="whiteSpace=wrap;html=1;fontStyle=4" parent="1" vertex="1">
          <mxGeometry x="40" y="670" width="80" height="20" as="geometry" />
        </mxCell>
        <mxCell id="lGFfOPP8RoqFbHj-49rB-10" value="FName" style="whiteSpace=wrap;html=1;" parent="1" vertex="1">
          <mxGeometry x="120" y="190" width="80" height="20" as="geometry" />
        </mxCell>
        <mxCell id="lGFfOPP8RoqFbHj-49rB-11" value="LName" style="whiteSpace=wrap;html=1;" parent="1" vertex="1">
          <mxGeometry x="200" y="190" width="80" height="20" as="geometry" />
        </mxCell>
        <mxCell id="lGFfOPP8RoqFbHj-49rB-12" value="Email" style="whiteSpace=wrap;html=1;fontStyle=4" parent="1" vertex="1">
          <mxGeometry x="280" y="190" width="80" height="20" as="geometry" />
        </mxCell>
        <mxCell id="lGFfOPP8RoqFbHj-49rB-13" value="Gender" style="whiteSpace=wrap;html=1;" parent="1" vertex="1">
          <mxGeometry x="360" y="190" width="80" height="20" as="geometry" />
        </mxCell>
        <mxCell id="lGFfOPP8RoqFbHj-49rB-14" value="Faculty" style="whiteSpace=wrap;html=1;" parent="1" vertex="1">
          <mxGeometry x="440" y="190" width="80" height="20" as="geometry" />
        </mxCell>
        <mxCell id="lGFfOPP8RoqFbHj-49rB-15" value="Year" style="whiteSpace=wrap;html=1;" parent="1" vertex="1">
          <mxGeometry x="120" y="310" width="80" height="20" as="geometry" />
        </mxCell>
        <mxCell id="lGFfOPP8RoqFbHj-49rB-16" value="Season" style="whiteSpace=wrap;html=1;" parent="1" vertex="1">
          <mxGeometry x="200" y="310" width="80" height="20" as="geometry" />
        </mxCell>
        <mxCell id="lGFfOPP8RoqFbHj-49rB-17" value="Date" style="whiteSpace=wrap;html=1;" parent="1" vertex="1">
          <mxGeometry x="120" y="430" width="80" height="20" as="geometry" />
        </mxCell>
        <mxCell id="lGFfOPP8RoqFbHj-49rB-19" value="StartTime" style="whiteSpace=wrap;html=1;" parent="1" vertex="1">
          <mxGeometry x="200" y="430" width="80" height="20" as="geometry" />
        </mxCell>
        <mxCell id="lGFfOPP8RoqFbHj-49rB-20" value="EndTime" style="whiteSpace=wrap;html=1;" parent="1" vertex="1">
          <mxGeometry x="280" y="430" width="80" height="20" as="geometry" />
        </mxCell>
        <mxCell id="lGFfOPP8RoqFbHj-49rB-21" value="Location" style="whiteSpace=wrap;html=1;" parent="1" vertex="1">
          <mxGeometry x="360" y="430" width="80" height="20" as="geometry" />
        </mxCell>
        <mxCell id="lGFfOPP8RoqFbHj-49rB-22" value="TeamName" style="whiteSpace=wrap;html=1;" parent="1" vertex="1">
          <mxGeometry x="120" y="670" width="80" height="20" as="geometry" />
        </mxCell>
        <mxCell id="lGFfOPP8RoqFbHj-49rB-24" value="&lt;b&gt;ACCOUNT&lt;/b&gt;" style="text;html=1;align=left;verticalAlign=middle;resizable=0;points=[];autosize=1;strokeColor=none;fillColor=none;" parent="1" vertex="1">
          <mxGeometry x="40" y="760" width="80" height="30" as="geometry" />
        </mxCell>
        <mxCell id="lGFfOPP8RoqFbHj-49rB-25" value="Password" style="whiteSpace=wrap;html=1;fontStyle=0" parent="1" vertex="1">
          <mxGeometry x="40" y="790" width="80" height="20" as="geometry" />
        </mxCell>
        <mxCell id="lGFfOPP8RoqFbHj-49rB-79" style="edgeStyle=orthogonalEdgeStyle;rounded=0;orthogonalLoop=1;jettySize=auto;html=1;entryX=0.25;entryY=1;entryDx=0;entryDy=0;" parent="1" source="lGFfOPP8RoqFbHj-49rB-26" target="lGFfOPP8RoqFbHj-49rB-12" edge="1">
          <mxGeometry relative="1" as="geometry">
            <Array as="points">
              <mxPoint x="160" y="820" />
              <mxPoint x="700" y="820" />
              <mxPoint x="700" y="260" />
              <mxPoint x="300" y="260" />
            </Array>
          </mxGeometry>
        </mxCell>
        <mxCell id="lGFfOPP8RoqFbHj-49rB-26" value="Email" style="whiteSpace=wrap;html=1;fontStyle=4" parent="1" vertex="1">
          <mxGeometry x="120" y="790" width="80" height="20" as="geometry" />
        </mxCell>
        <mxCell id="lGFfOPP8RoqFbHj-49rB-76" style="edgeStyle=orthogonalEdgeStyle;rounded=0;orthogonalLoop=1;jettySize=auto;html=1;entryX=0.5;entryY=1;entryDx=0;entryDy=0;" parent="1" source="lGFfOPP8RoqFbHj-49rB-28" target="lGFfOPP8RoqFbHj-49rB-4" edge="1">
          <mxGeometry relative="1" as="geometry">
            <Array as="points">
              <mxPoint x="480" y="460" />
              <mxPoint x="530" y="460" />
              <mxPoint x="530" y="360" />
              <mxPoint x="80" y="360" />
            </Array>
          </mxGeometry>
        </mxCell>
        <mxCell id="lGFfOPP8RoqFbHj-49rB-28" value="TCode" style="whiteSpace=wrap;html=1;fontStyle=0" parent="1" vertex="1">
          <mxGeometry x="440" y="430" width="80" height="20" as="geometry" />
        </mxCell>
        <mxCell id="lGFfOPP8RoqFbHj-49rB-78" style="edgeStyle=orthogonalEdgeStyle;rounded=0;orthogonalLoop=1;jettySize=auto;html=1;entryX=0.25;entryY=1;entryDx=0;entryDy=0;" parent="1" source="lGFfOPP8RoqFbHj-49rB-29" target="lGFfOPP8RoqFbHj-49rB-66" edge="1">
          <mxGeometry relative="1" as="geometry">
            <Array as="points">
              <mxPoint x="240" y="700" />
              <mxPoint x="370" y="700" />
              <mxPoint x="370" y="600" />
              <mxPoint x="60" y="600" />
            </Array>
          </mxGeometry>
        </mxCell>
        <mxCell id="lGFfOPP8RoqFbHj-49rB-29" value="EventId" style="whiteSpace=wrap;html=1;fontStyle=0" parent="1" vertex="1">
          <mxGeometry x="200" y="670" width="80" height="20" as="geometry" />
        </mxCell>
        <mxCell id="lGFfOPP8RoqFbHj-49rB-37" value="&lt;b&gt;MEMBER_VALID_FOR_TERM&lt;/b&gt;" style="text;html=1;align=left;verticalAlign=middle;resizable=0;points=[];autosize=1;strokeColor=none;fillColor=none;" parent="1" vertex="1">
          <mxGeometry x="40" y="880" width="190" height="30" as="geometry" />
        </mxCell>
        <mxCell id="lGFfOPP8RoqFbHj-49rB-81" style="edgeStyle=orthogonalEdgeStyle;rounded=0;orthogonalLoop=1;jettySize=auto;html=1;" parent="1" source="lGFfOPP8RoqFbHj-49rB-38" edge="1">
          <mxGeometry relative="1" as="geometry">
            <mxPoint x="70" y="330" as="targetPoint" />
            <Array as="points">
              <mxPoint x="80" y="950" />
              <mxPoint x="720" y="950" />
              <mxPoint x="720" y="370" />
              <mxPoint x="70" y="370" />
              <mxPoint x="70" y="330" />
            </Array>
          </mxGeometry>
        </mxCell>
        <mxCell id="lGFfOPP8RoqFbHj-49rB-38" value="TCode" style="whiteSpace=wrap;html=1;fontStyle=4" parent="1" vertex="1">
          <mxGeometry x="40" y="910" width="80" height="20" as="geometry" />
        </mxCell>
        <mxCell id="lGFfOPP8RoqFbHj-49rB-80" style="edgeStyle=orthogonalEdgeStyle;rounded=0;orthogonalLoop=1;jettySize=auto;html=1;entryX=0.5;entryY=1;entryDx=0;entryDy=0;" parent="1" source="lGFfOPP8RoqFbHj-49rB-39" target="lGFfOPP8RoqFbHj-49rB-12" edge="1">
          <mxGeometry relative="1" as="geometry">
            <Array as="points">
              <mxPoint x="160" y="940" />
              <mxPoint x="710" y="940" />
              <mxPoint x="710" y="250" />
              <mxPoint x="320" y="250" />
            </Array>
          </mxGeometry>
        </mxCell>
        <mxCell id="lGFfOPP8RoqFbHj-49rB-39" value="Email" style="whiteSpace=wrap;html=1;fontStyle=4" parent="1" vertex="1">
          <mxGeometry x="120" y="910" width="80" height="20" as="geometry" />
        </mxCell>
        <mxCell id="lGFfOPP8RoqFbHj-49rB-42" value="&lt;b&gt;EXECUTIVE_WORKS_FOR_TERM&lt;/b&gt;" style="text;html=1;align=left;verticalAlign=middle;resizable=0;points=[];autosize=1;strokeColor=none;fillColor=none;" parent="1" vertex="1">
          <mxGeometry x="40" y="1000" width="220" height="30" as="geometry" />
        </mxCell>
        <mxCell id="lGFfOPP8RoqFbHj-49rB-83" style="edgeStyle=orthogonalEdgeStyle;rounded=0;orthogonalLoop=1;jettySize=auto;html=1;" parent="1" source="lGFfOPP8RoqFbHj-49rB-43" edge="1">
          <mxGeometry relative="1" as="geometry">
            <mxPoint x="50" y="330" as="targetPoint" />
            <Array as="points">
              <mxPoint x="80" y="1070" />
              <mxPoint x="740" y="1070" />
              <mxPoint x="740" y="380" />
              <mxPoint x="50" y="380" />
              <mxPoint x="50" y="330" />
            </Array>
          </mxGeometry>
        </mxCell>
        <mxCell id="lGFfOPP8RoqFbHj-49rB-43" value="TCode" style="whiteSpace=wrap;html=1;fontStyle=4" parent="1" vertex="1">
          <mxGeometry x="40" y="1030" width="80" height="20" as="geometry" />
        </mxCell>
        <mxCell id="lGFfOPP8RoqFbHj-49rB-82" style="edgeStyle=orthogonalEdgeStyle;rounded=0;orthogonalLoop=1;jettySize=auto;html=1;entryX=0.75;entryY=1;entryDx=0;entryDy=0;" parent="1" source="lGFfOPP8RoqFbHj-49rB-44" target="lGFfOPP8RoqFbHj-49rB-60" edge="1">
          <mxGeometry relative="1" as="geometry">
            <Array as="points">
              <mxPoint x="160" y="1060" />
              <mxPoint x="730" y="1060" />
              <mxPoint x="730" y="110" />
              <mxPoint x="340" y="110" />
            </Array>
          </mxGeometry>
        </mxCell>
        <mxCell id="lGFfOPP8RoqFbHj-49rB-44" value="Email" style="whiteSpace=wrap;html=1;fontStyle=4" parent="1" vertex="1">
          <mxGeometry x="120" y="1030" width="80" height="20" as="geometry" />
        </mxCell>
        <mxCell id="lGFfOPP8RoqFbHj-49rB-47" value="&lt;b&gt;MEMBER_ATTEND_SESSION&lt;/b&gt;" style="text;html=1;align=left;verticalAlign=middle;resizable=0;points=[];autosize=1;strokeColor=none;fillColor=none;" parent="1" vertex="1">
          <mxGeometry x="40" y="1120" width="190" height="30" as="geometry" />
        </mxCell>
        <mxCell id="lGFfOPP8RoqFbHj-49rB-84" style="edgeStyle=orthogonalEdgeStyle;rounded=0;orthogonalLoop=1;jettySize=auto;html=1;entryX=0.75;entryY=1;entryDx=0;entryDy=0;" parent="1" source="lGFfOPP8RoqFbHj-49rB-48" target="lGFfOPP8RoqFbHj-49rB-12" edge="1">
          <mxGeometry relative="1" as="geometry">
            <Array as="points">
              <mxPoint x="80" y="1190" />
              <mxPoint x="760" y="1190" />
              <mxPoint x="760" y="240" />
              <mxPoint x="340" y="240" />
            </Array>
          </mxGeometry>
        </mxCell>
        <mxCell id="lGFfOPP8RoqFbHj-49rB-48" value="Email" style="whiteSpace=wrap;html=1;fontStyle=4" parent="1" vertex="1">
          <mxGeometry x="40" y="1150" width="80" height="20" as="geometry" />
        </mxCell>
        <mxCell id="lGFfOPP8RoqFbHj-49rB-85" style="edgeStyle=orthogonalEdgeStyle;rounded=0;orthogonalLoop=1;jettySize=auto;html=1;entryX=0.5;entryY=1;entryDx=0;entryDy=0;" parent="1" source="lGFfOPP8RoqFbHj-49rB-49" target="lGFfOPP8RoqFbHj-49rB-6" edge="1">
          <mxGeometry relative="1" as="geometry">
            <Array as="points">
              <mxPoint x="160" y="1180" />
              <mxPoint x="750" y="1180" />
              <mxPoint x="750" y="470" />
              <mxPoint x="80" y="470" />
            </Array>
          </mxGeometry>
        </mxCell>
        <mxCell id="lGFfOPP8RoqFbHj-49rB-49" value="EventId" style="whiteSpace=wrap;html=1;fontStyle=4" parent="1" vertex="1">
          <mxGeometry x="120" y="1150" width="80" height="20" as="geometry" />
        </mxCell>
        <mxCell id="lGFfOPP8RoqFbHj-49rB-50" value="&lt;b&gt;MEMBER_MAKE_TEAM&lt;/b&gt;" style="text;html=1;align=left;verticalAlign=middle;resizable=0;points=[];autosize=1;strokeColor=none;fillColor=none;" parent="1" vertex="1">
          <mxGeometry x="40" y="1240" width="160" height="30" as="geometry" />
        </mxCell>
        <mxCell id="lGFfOPP8RoqFbHj-49rB-86" style="edgeStyle=orthogonalEdgeStyle;rounded=0;orthogonalLoop=1;jettySize=auto;html=1;" parent="1" source="lGFfOPP8RoqFbHj-49rB-51" edge="1">
          <mxGeometry relative="1" as="geometry">
            <mxPoint x="350" y="210" as="targetPoint" />
            <Array as="points">
              <mxPoint x="80" y="1310" />
              <mxPoint x="780" y="1310" />
              <mxPoint x="780" y="230" />
              <mxPoint x="350" y="230" />
            </Array>
          </mxGeometry>
        </mxCell>
        <mxCell id="lGFfOPP8RoqFbHj-49rB-51" value="Email" style="whiteSpace=wrap;html=1;fontStyle=4" parent="1" vertex="1">
          <mxGeometry x="40" y="1270" width="80" height="20" as="geometry" />
        </mxCell>
        <mxCell id="lGFfOPP8RoqFbHj-49rB-87" style="edgeStyle=orthogonalEdgeStyle;rounded=0;orthogonalLoop=1;jettySize=auto;html=1;entryX=0.5;entryY=1;entryDx=0;entryDy=0;" parent="1" source="lGFfOPP8RoqFbHj-49rB-52" target="lGFfOPP8RoqFbHj-49rB-8" edge="1">
          <mxGeometry relative="1" as="geometry">
            <Array as="points">
              <mxPoint x="160" y="1300" />
              <mxPoint x="770" y="1300" />
              <mxPoint x="770" y="710" />
              <mxPoint x="80" y="710" />
            </Array>
          </mxGeometry>
        </mxCell>
        <mxCell id="lGFfOPP8RoqFbHj-49rB-52" value="TeamId" style="whiteSpace=wrap;html=1;fontStyle=4" parent="1" vertex="1">
          <mxGeometry x="120" y="1270" width="80" height="20" as="geometry" />
        </mxCell>
        <mxCell id="lGFfOPP8RoqFbHj-49rB-53" value="&lt;b&gt;SESSION_LEVELS&lt;/b&gt;" style="text;html=1;align=left;verticalAlign=middle;resizable=0;points=[];autosize=1;strokeColor=none;fillColor=none;" parent="1" vertex="1">
          <mxGeometry x="40" y="1360" width="130" height="30" as="geometry" />
        </mxCell>
        <mxCell id="lGFfOPP8RoqFbHj-49rB-92" style="edgeStyle=orthogonalEdgeStyle;rounded=0;orthogonalLoop=1;jettySize=auto;html=1;" parent="1" source="lGFfOPP8RoqFbHj-49rB-54" edge="1">
          <mxGeometry relative="1" as="geometry">
            <mxPoint x="60" y="450" as="targetPoint" />
            <Array as="points">
              <mxPoint x="80" y="1420" />
              <mxPoint x="790" y="1420" />
              <mxPoint x="790" y="480" />
              <mxPoint x="60" y="480" />
            </Array>
          </mxGeometry>
        </mxCell>
        <mxCell id="lGFfOPP8RoqFbHj-49rB-54" value="EventId" style="whiteSpace=wrap;html=1;fontStyle=4" parent="1" vertex="1">
          <mxGeometry x="40" y="1390" width="80" height="20" as="geometry" />
        </mxCell>
        <mxCell id="lGFfOPP8RoqFbHj-49rB-55" value="Level" style="whiteSpace=wrap;html=1;fontStyle=4" parent="1" vertex="1">
          <mxGeometry x="120" y="1390" width="80" height="20" as="geometry" />
        </mxCell>
        <mxCell id="lGFfOPP8RoqFbHj-49rB-56" value="&lt;b&gt;EXECUTIVE&lt;/b&gt;" style="text;html=1;align=left;verticalAlign=middle;resizable=0;points=[];autosize=1;strokeColor=none;fillColor=none;" parent="1" vertex="1">
          <mxGeometry x="40" y="40" width="90" height="30" as="geometry" />
        </mxCell>
        <mxCell id="lGFfOPP8RoqFbHj-49rB-57" value="StdNo" style="whiteSpace=wrap;html=1;" parent="1" vertex="1">
          <mxGeometry x="40" y="70" width="80" height="20" as="geometry" />
        </mxCell>
        <mxCell id="lGFfOPP8RoqFbHj-49rB-58" value="FName" style="whiteSpace=wrap;html=1;" parent="1" vertex="1">
          <mxGeometry x="120" y="70" width="80" height="20" as="geometry" />
        </mxCell>
        <mxCell id="lGFfOPP8RoqFbHj-49rB-59" value="LName" style="whiteSpace=wrap;html=1;" parent="1" vertex="1">
          <mxGeometry x="200" y="70" width="80" height="20" as="geometry" />
        </mxCell>
        <mxCell id="lGFfOPP8RoqFbHj-49rB-60" value="Email" style="whiteSpace=wrap;html=1;fontStyle=4" parent="1" vertex="1">
          <mxGeometry x="280" y="70" width="80" height="20" as="geometry" />
        </mxCell>
        <mxCell id="lGFfOPP8RoqFbHj-49rB-61" value="Gender" style="whiteSpace=wrap;html=1;" parent="1" vertex="1">
          <mxGeometry x="360" y="70" width="80" height="20" as="geometry" />
        </mxCell>
        <mxCell id="lGFfOPP8RoqFbHj-49rB-62" value="Faculty" style="whiteSpace=wrap;html=1;" parent="1" vertex="1">
          <mxGeometry x="440" y="70" width="80" height="20" as="geometry" />
        </mxCell>
        <mxCell id="lGFfOPP8RoqFbHj-49rB-64" value="Level" style="whiteSpace=wrap;html=1;" parent="1" vertex="1">
          <mxGeometry x="520" y="190" width="80" height="20" as="geometry" />
        </mxCell>
        <mxCell id="lGFfOPP8RoqFbHj-49rB-65" value="&lt;b&gt;TOURNAMENT&lt;/b&gt;" style="text;html=1;align=left;verticalAlign=middle;resizable=0;points=[];autosize=1;strokeColor=none;fillColor=none;" parent="1" vertex="1">
          <mxGeometry x="40" y="520" width="110" height="30" as="geometry" />
        </mxCell>
        <mxCell id="lGFfOPP8RoqFbHj-49rB-66" value="EventId" style="whiteSpace=wrap;html=1;fontStyle=4" parent="1" vertex="1">
          <mxGeometry x="40" y="550" width="80" height="20" as="geometry" />
        </mxCell>
        <mxCell id="lGFfOPP8RoqFbHj-49rB-67" value="Date" style="whiteSpace=wrap;html=1;" parent="1" vertex="1">
          <mxGeometry x="120" y="550" width="80" height="20" as="geometry" />
        </mxCell>
        <mxCell id="lGFfOPP8RoqFbHj-49rB-68" value="StartTime" style="whiteSpace=wrap;html=1;" parent="1" vertex="1">
          <mxGeometry x="200" y="550" width="80" height="20" as="geometry" />
        </mxCell>
        <mxCell id="lGFfOPP8RoqFbHj-49rB-69" value="EndTime" style="whiteSpace=wrap;html=1;" parent="1" vertex="1">
          <mxGeometry x="280" y="550" width="80" height="20" as="geometry" />
        </mxCell>
        <mxCell id="lGFfOPP8RoqFbHj-49rB-70" value="Location" style="whiteSpace=wrap;html=1;" parent="1" vertex="1">
          <mxGeometry x="360" y="550" width="80" height="20" as="geometry" />
        </mxCell>
        <mxCell id="lGFfOPP8RoqFbHj-49rB-77" style="edgeStyle=orthogonalEdgeStyle;rounded=0;orthogonalLoop=1;jettySize=auto;html=1;entryX=0.75;entryY=1;entryDx=0;entryDy=0;" parent="1" source="lGFfOPP8RoqFbHj-49rB-71" target="lGFfOPP8RoqFbHj-49rB-4" edge="1">
          <mxGeometry relative="1" as="geometry">
            <Array as="points">
              <mxPoint x="480" y="580" />
              <mxPoint x="690" y="580" />
              <mxPoint x="690" y="350" />
              <mxPoint x="100" y="350" />
            </Array>
          </mxGeometry>
        </mxCell>
        <mxCell id="lGFfOPP8RoqFbHj-49rB-71" value="TCode" style="whiteSpace=wrap;html=1;fontStyle=0" parent="1" vertex="1">
          <mxGeometry x="440" y="550" width="80" height="20" as="geometry" />
        </mxCell>
        <mxCell id="lGFfOPP8RoqFbHj-49rB-73" value="TourneyName" style="whiteSpace=wrap;html=1;fontStyle=0" parent="1" vertex="1">
          <mxGeometry x="520" y="550" width="80" height="20" as="geometry" />
        </mxCell>
        <mxCell id="lGFfOPP8RoqFbHj-49rB-89" value="&lt;b&gt;TOURNAMENT_LEVELS&lt;/b&gt;" style="text;html=1;align=left;verticalAlign=middle;resizable=0;points=[];autosize=1;strokeColor=none;fillColor=none;" parent="1" vertex="1">
          <mxGeometry x="40" y="1480" width="160" height="30" as="geometry" />
        </mxCell>
        <mxCell id="lGFfOPP8RoqFbHj-49rB-94" style="edgeStyle=orthogonalEdgeStyle;rounded=0;orthogonalLoop=1;jettySize=auto;html=1;" parent="1" source="lGFfOPP8RoqFbHj-49rB-90" edge="1">
          <mxGeometry relative="1" as="geometry">
            <mxPoint x="80" y="570" as="targetPoint" />
            <Array as="points">
              <mxPoint x="80" y="1540" />
              <mxPoint x="800" y="1540" />
              <mxPoint x="800" y="590" />
              <mxPoint x="80" y="590" />
            </Array>
          </mxGeometry>
        </mxCell>
        <mxCell id="lGFfOPP8RoqFbHj-49rB-90" value="EventId" style="whiteSpace=wrap;html=1;fontStyle=4" parent="1" vertex="1">
          <mxGeometry x="40" y="1510" width="80" height="20" as="geometry" />
        </mxCell>
        <mxCell id="lGFfOPP8RoqFbHj-49rB-91" value="Level" style="whiteSpace=wrap;html=1;fontStyle=4" parent="1" vertex="1">
          <mxGeometry x="120" y="1510" width="80" height="20" as="geometry" />
        </mxCell>
        <mxCell id="VSkRDwIimp3uAwXAARtj-3" style="edgeStyle=orthogonalEdgeStyle;rounded=0;orthogonalLoop=1;jettySize=auto;html=1;entryX=0.5;entryY=1;entryDx=0;entryDy=0;" parent="1" source="VSkRDwIimp3uAwXAARtj-2" target="lGFfOPP8RoqFbHj-49rB-60" edge="1">
          <mxGeometry relative="1" as="geometry">
            <Array as="points">
              <mxPoint x="645" y="220" />
              <mxPoint x="720" y="220" />
              <mxPoint x="720" y="120" />
              <mxPoint x="320" y="120" />
            </Array>
          </mxGeometry>
        </mxCell>
        <mxCell id="VSkRDwIimp3uAwXAARtj-2" value="EvaluatorEmail" style="whiteSpace=wrap;html=1;" parent="1" vertex="1">
          <mxGeometry x="600" y="190" width="90" height="20" as="geometry" />
        </mxCell>
        <mxCell id="VSkRDwIimp3uAwXAARtj-4" value="ExecTeam" style="whiteSpace=wrap;html=1;" parent="1" vertex="1">
          <mxGeometry x="200" y="1030" width="80" height="20" as="geometry" />
        </mxCell>
      </root>
    </mxGraphModel>
  </diagram>
</mxfile>
